# xmcd CD database file
#
# Track frame offsets:
#	150
#	25615
#	52870
#	81181
#	100609
#	127839
#	147939
#	169877
#	200799
#	227171
#	235158
#	264166
#
# Disc length: 3826 seconds
#
# Revision: 0
# Processed by: cddbd v1.5.2PL0 Copyright (c) Steve Scherf et al.
# Submitted via: CDex 1.75
#
DISCID=920ef00c
DTITLE=Carlton Holmes Trio - You Me and I
DYEAR=2010
DGENRE=Jazz
TTITLE0=Carlton Holmes Trio      - Edda
TTITLE1=Carlton Holmes Trio - Theme To Ginger's Rise
TTITLE2=Carlton Holmes Trio - Theme For Gregory
TTITLE3=Carlton Holmes Trio - My Isha
TTITLE4=Carlton Holmes Trio - Here's To Life
TTITLE5=Carlton Holmes Trio - The Glass Slipper
TTITLE6=Carlton Holmes Trio - Firm Roots
TTITLE7=Carlton Holmes Trio - Soul Sanctuary
TTITLE8=Carlton Holmes Trio - I Have A Dream
TTITLE9=Carlton Holmes Trio - A Meditation
TTITLE10=Carlton Holmes Trio - Kenny's Song Goodbye
TTITLE11=Carlton Holmes Trio - Yumi and I
EXTD=YEAR: 2010
EXTT0=
EXTT1=
EXTT2=
EXTT3=
EXTT4=
EXTT5=
EXTT6=
EXTT7=
EXTT8=
EXTT9=
EXTT10=
EXTT11=
PLAYORDER=
